# xmcd
#
# Track frame offsets:
#	150
#	14725
#	32690
#	49745
#	67873
#	82177
#	99384
#	114001
#	126989
#	147457
#	167059
#	180738
#
# Disc length: 2728 seconds
#
# Revision: 0
# Processed by: cddbd v1.5.2PL0 Copyright (c) Steve Scherf et al.
# Submitted via: dBpowerAMP V4.0
#
DISCID=a10aa60c
DTITLE=Johhny Reid - A Place Called love
DYEAR=2010
DGENRE=Country
TTITLE0=You Gave My Heart a Home
TTITLE1=Today I'm Gonna Try and Change the World
TTITLE2=That Man is Me
TTITLE3=Hands of a Working Man
TTITLE4=Good People
TTITLE5=Doesn't Get Better Than You
TTITLE6=Love Thing
TTITLE7=Out of the Blue
TTITLE8=Tell Me Margaret
TTITLE9=This is Not Goodbye
TTITLE10=Let's Go higher
TTITLE11=A Place Called Love
EXTD=
EXTT0=
EXTT1=
EXTT2=
EXTT3=
EXTT4=
EXTT5=
EXTT6=
EXTT7=
EXTT8=
EXTT9=
EXTT10=
EXTT11=
PLAYORDER=
